Coordinates
version=1
nRows=19
nColumns=36
inDegrees=yes

Units are S.I. units (second, meters, Newtons, ...)
If the header above contains a line with 'inDegrees', this indicates whether rotational values are in degrees (yes) or radians (no).

endheader
time	pelvis_tilt	pelvis_list	pelvis_rotation	pelvis_tx	pelvis_ty	pelvis_tz	hip_flexion_r	hip_adduction_r	hip_rotation_r	knee_angle_r	knee_angle_r_beta	ankle_angle_r	subtalar_angle_r	mtp_angle_r	hip_flexion_l	hip_adduction_l	hip_rotation_l	knee_angle_l	knee_angle_l_beta	ankle_angle_l	subtalar_angle_l	mtp_angle_l	lumbar_extension	lumbar_bending	lumbar_rotation	arm_flex_r	arm_add_r	arm_rot_r	elbow_flex_r	pro_sup_r	arm_flex_l	arm_add_l	arm_rot_l	elbow_flex_l	pro_sup_l
      2.20000000	    -31.63943381	     -4.43713890	      2.65015860	      0.95072817	      0.49489775	      0.13355225	    108.68724592	    -17.89974692	     -0.81934540	    113.58266410	      1.98239146	     37.48198979	     -0.71775536	     -7.49999987	    111.56228180	    -20.32712978	      9.92841911	    114.04609466	      1.99047985	     42.04057797	      0.49566227	     -7.49999987	    -20.86052599	      0.32965068	     14.05066984	     83.89968936	    -13.04111139	     76.10838604	    124.34167183	     75.91322609	     91.01855291	      6.11934527	     66.60511974	    111.82930728	     97.31585140
      2.21666670	    -31.77868420	     -4.48624750	      2.66346515	      0.95073224	      0.50155045	      0.13339735	    108.46314826	    -17.87439771	     -0.97111496	    112.98122927	      1.97189444	     37.21278187	     -0.56616308	     -7.49999987	    111.35045116	    -20.23337994	      9.72845575	    113.54953104	      1.98181318	     41.94277549	      0.55882113	     -7.49999987	    -20.91643652	      0.35934672	     13.89776777	     84.10958054	    -13.37896218	     76.04018096	    124.31169578	     75.91299083	     91.04299976	      5.99084983	     66.51278557	    111.72585858	     97.29437146
      2.23333330	    -31.67676352	     -4.54194382	      2.73643830	      0.95636337	      0.51300464	      0.12921813	    107.52821341	    -18.00549904	     -1.25792102	    111.99223665	      1.95463327	     36.97193710	     -0.17606080	     -7.49999987	    110.40364460	    -20.07140846	      9.30190180	    112.67255610	      1.96650708	     42.08618255	      0.67602460	     -7.49999987	    -21.18443156	      0.44939123	     14.24195126	     84.03847479	    -14.18673939	     76.54470065	    125.96987619	     76.32336840	     90.64593138	      7.09065076	     66.71737213	    111.37144851	     96.96583838
      2.25000000	    -31.91481799	     -4.54704716	      2.72118666	      0.96184803	      0.52338530	      0.12466837	    106.51160984	    -18.04040661	     -1.56624834	    110.60454406	      1.93041346	     36.83940234	      0.22558213	     -7.49999987	    109.28773561	    -19.92442308	      8.71531364	    111.44362478	      1.94505818	     42.21846020	      0.70322008	     -7.49999987	    -20.88751515	      0.62390689	     14.47747837	     82.09680077	    -14.62477005	     76.39382110	    125.58350856	     77.29132391	     89.01529187	      7.88203527	     67.38229328	    110.27109970	     98.77285239
      2.26666670	    -31.73413665	     -4.39886908	      2.68649413	      0.97179655	      0.53329955	      0.12576631	    104.77813666	    -17.94288887	     -1.77859710	    109.03319594	      1.90298826	     36.85810932	      0.65450431	     -7.49999987	    107.19513595	    -19.83236893	      7.96280953	    109.95046386	      1.91899761	     42.73380437	      0.85071454	     -7.49999987	    -20.81674264	      0.78441649	     14.79695548	     80.18057296	    -14.64732905	     78.31947431	    124.58267599	     77.99607072	     86.94448795	      7.86467549	     67.54545619	    109.57808752	     99.56036589
      2.28333330	    -31.36495551	     -4.25389508	      2.61997390	      0.97016338	      0.53814117	      0.12629780	    102.87971626	    -17.73054164	     -1.99358602	    107.46663433	      1.87564661	     36.83846677	      0.95238139	     -7.49999987	    104.96182266	    -19.83183786	      7.24588262	    108.46086604	      1.89299922	     43.12919040	      0.85420022	     -7.49999987	    -20.50381735	      1.04502526	     14.74820064	     78.89596421	    -13.66574961	     77.96739833	    123.10260309	     85.75031892	     85.52952480	      7.02863581	     66.08342040	    110.69014539	    105.72002729
      2.30000000	    -31.13499520	     -4.08523214	      2.54565123	      0.96468208	      0.54491690	      0.13096453	    101.29691800	    -17.45476252	     -2.21838293	    105.99697621	      1.84999623	     36.74087287	      1.14560962	     -7.49999987	    103.15896424	    -19.92629580	      6.58119579	    107.05472870	      1.86845750	     43.21468699	      0.87494512	     -7.49999987	    -20.12546879	      1.05954389	     14.42395111	     80.18281655	    -11.58920671	     77.44394051	    125.09401744	     86.06641388	     85.81045605	      6.29758811	     65.84006351	    113.04488526	    105.49641172
      2.31666670	    -30.89147756	     -4.02059854	      2.31497684	      0.96467452	      0.54864443	      0.13850691	     99.98417358	    -16.96562389	     -2.58345255	    104.83828765	      1.82977330	     36.69815599	      1.31291174	     -7.49999987	    101.77299027	    -20.30529627	      6.21138398	    105.94077563	      1.84901535	     43.19198846	      0.85484140	     -7.49999987	    -19.50852536	      0.94634108	     14.48165873	     81.25408524	     -9.96178123	     75.61013512	    125.19347913	     86.06824959	     86.26985660	      5.77953516	     64.75282011	    114.30764266	    105.33094279
      2.33333330	    -30.63196299	     -3.85090624	      2.35561765	      0.96009904	      0.56839549	      0.13351403	     98.42025328	    -16.89445674	     -3.02014540	    103.23065909	      1.80171489	     36.56487815	      1.43905448	     -7.49999987	    100.11815436	    -20.32793251	      5.46437899	    104.36051161	      1.82143454	     42.97215905	      0.87511502	     -7.49999987	    -19.84081391	      1.16905075	     14.14977544	     81.24785411	    -10.73777794	     75.72268855	    122.35790325	     84.47072092	     86.62859017	      5.15701157	     65.34429409	    112.60056972	    102.08551639
      2.35000000	    -30.44219159	     -3.65475877	      2.20374539	      0.96494135	      0.58808245	      0.13090874	     96.48723944	    -16.63523828	     -3.54591701	    100.97313166	      1.76231360	     36.14948810	      1.49164332	     -7.49999987	     97.96482907	    -20.46446681	      4.53147953	    102.22511825	      1.78416489	     42.65826863	      0.82017368	     -7.49999987	    -19.88412331	      1.11225936	     14.00823203	     79.54176041	    -10.39688016	     75.75574183	    120.05803323	     84.42842136	     85.90737418	      4.58941949	     65.97032888	    111.53263155	    102.06949460
      2.36666670	    -30.11500283	     -3.59933844	      2.17474720	      0.95494916	      0.59847575	      0.13968456	     94.51486205	    -16.37613369	     -4.18328296	     98.70500007	      1.72272724	     35.46636375	      1.41135931	     -7.49999987	     95.92556041	    -20.55133803	      3.75840302	    100.04315262	      1.74608241	     41.92348845	      0.64027755	     -7.49999987	    -20.21159208	      1.04996385	     13.91456066	     80.47202628	     -9.57924696	     74.23836793	    119.77453994	     84.58062210	     87.04559210	      3.68908190	     65.45445843	    112.31812048	    102.34823105
      2.38333330	    -29.63157664	     -3.47699756	      2.06677248	      0.96642030	      0.60655462	      0.14019757	     92.41300776	    -15.99327612	     -4.71280306	     96.55737593	      1.68524413	     34.95528282	      1.38566549	     -7.49999987	     93.56475916	    -20.70629267	      3.01021450	     97.85812791	      1.70794653	     41.28392893	      0.47431863	     -7.49999987	    -19.71167104	      0.93928232	     13.88388927	     79.92473556	     -8.16910833	     75.36619739	    120.76549519	     84.95085505	     86.54357853	      3.70847209	     64.90977221	    113.76150972	    102.50557299
      2.40000000	    -29.34063324	     -3.36552631	      2.01303181	      0.96193633	      0.61958710	      0.13531990	     90.53864091	    -15.73476869	     -5.20666583	     94.33614476	      1.64647633	     34.37935024	      1.46444993	     -7.49999987	     91.48906381	    -20.70057853	      2.25286105	     95.65111508	      1.66942689	     40.55546107	      0.41701154	     -7.49999987	    -18.87656127	      1.03243922	     13.20151306	     79.10637366	     -9.29140139	     76.41706041	    120.72687829	     84.97319368	     85.87175233	      3.72825563	     65.26176462	    113.97309027	    102.32404867
      2.41666670	    -28.54922771	     -3.09121532	      1.96458784	      0.96720959	      0.64136948	      0.14055822	     87.80214465	    -15.42745552	     -5.58425210	     91.66811951	      1.59991050	     33.77082278	      1.46078422	     -7.49999987	     88.33851732	    -20.72097196	      1.16981103	     92.95284897	      1.62233326	     39.89714255	      0.40337464	     -7.49999987	    -19.41731183	      0.73645832	     13.06096148	     79.25786522	     -7.88578753	     74.69831054	    120.55788988	     84.30644874	     85.37490846	      3.09444517	     66.58983206	    115.47262491	    100.92653607
      2.43333330	    -27.94874365	     -2.91465633	      1.85514678	      0.97788857	      0.65818077	      0.13515706	     84.87803499	    -15.14508261	     -6.17453533	     88.68841667	      1.54790488	     33.13552962	      1.44644569	     -7.49999987	     85.00799576	    -20.70294909	      0.12189342	     89.90115682	      1.56907119	     39.06404318	      0.32854158	     -7.49999987	    -18.67922957	      0.64764871	     12.59516400	     76.73911820	     -7.34014360	     76.30928012	    120.97194772	     84.46671545	     83.37564991	      3.56291234	     67.12244280	    115.25888094	    100.84315372
      2.45000000	    -27.23845976	     -2.63226129	      1.69946870	      0.98369697	      0.66936996	      0.13109585	     81.85333519	    -14.89543756	     -6.55982006	     85.68284804	      1.49544781	     32.50370413	      1.61430552	     -7.49999987	     81.45734956	    -20.58392282	     -1.02057774	     86.84795948	      1.51578284	     38.35405742	      0.50337091	     -7.49999987	    -17.69514874	      0.56583221	     11.84388426	     75.23860316	     -6.90879761	     76.78484223	    122.51146000	     84.75131501	     81.52426518	      3.96200714	     67.71494846	    115.82877041	    101.10550378
      2.46666670	    -25.95751868	     -1.97699154	      1.58861810	      0.98500944	      0.68552483	      0.13914271	     78.45931849	    -14.63505286	     -6.48424169	     82.80560578	      1.44523046	     31.82941731	      1.64279483	     -7.49999987	     77.15800048	    -20.47602997	     -2.67006528	     83.62856899	      1.45959388	     37.63873127	      0.74958322	     -7.49999987	    -17.92605448	     -0.23717292	     11.79940709	     74.20928458	     -6.40567659	     78.24610770	    122.73843171	     85.51265245	     81.39969150	      4.12314278	     67.16688635	    115.26713364	    101.61556824
      2.48333330	    -25.43601137	     -1.60357662	      1.45488387	      0.98517889	      0.71254736	      0.13235666	     75.37914438	    -14.53492464	     -6.98506973	     79.22545950	      1.38274512	     30.84528601	      1.82684478	     -7.49999987	     73.63517666	    -20.25979473	     -4.17267884	     79.94121691	      1.39523744	     36.37983089	      0.96639048	     -7.49999987	    -17.65748090	     -0.50624165	     11.66444928	     72.93591657	     -6.93835295	     80.20157452	    122.95514051	     84.82174432	     79.84036070	      3.84513280	     68.87450383	    115.72390246	     99.70971264
      2.50000000	    -24.85263309	     -1.40686045	      1.27674692	      0.99170120	      0.72456323	      0.13786409	     72.33730309	    -14.19924624	     -7.50626439	     75.78994451	      1.32278407	     29.69074396	      1.79515217	     -7.49999987	     70.24417382	    -20.11840419	     -5.39058484	     76.40434533	      1.33350739	     34.97920714	      1.06833847	     -7.49999987	    -16.87281204	     -0.78637806	     11.45462469	     71.72696086	     -6.52701569	     80.18699713	    122.82247450	     85.26033496	     79.61438770	      4.20232895	     68.15098657	    116.37642655	    100.00210284
